<?xml version="1.0" encoding="utf-8"?>
<!-- Generator: Adobe Illustrator 21.1.0, SVG Export Plug-In . SVG Version: 6.00 Build 0)  -->
<svg version="1.1" id="Calque_1" xmlns="http://www.w3.org/2000/svg" xmlns:xlink="http://www.w3.org/1999/xlink" x="0px" y="0px"
	 viewBox="0 0 500 500" style="enable-background:new 0 0 500 500;" xml:space="preserve">
<style type="text/css">
	.st0{fill:#FFFC00;}
	.st1{fill:#3D5A98;}
	.st2{fill:#1DA1F2;}
	.st3{fill-rule:evenodd;clip-rule:evenodd;fill:#FFFFFF;}
	.st4{fill:#FFFFFF;}
	.st5{fill:#030303;}
</style>
<path class="st1" d="M470,500H30c-16.5,0-30-13.5-30-30V30C0,13.5,13.5,0,30,0h440c16.5,0,30,13.5,30,30v440
	C500,486.5,486.5,500,470,500z"/>
<path id="f" class="st4" d="M345,500V306.4h65l9.7-75.5H345v-48.2c0-21.8,6.1-36.7,37.4-36.7l40,0V78.5c-6.9-0.9-30.6-3-58.2-3
	c-57.6,0-97.1,35.2-97.1,99.7v55.6h-65.2v75.5h65.2V500H345z"/>
</svg>
